<svg width="52" height="52" viewBox="0 0 52 52" fill="none" xmlns="http://www.w3.org/2000/svg">
<rect width="51.0469" height="51.0469" rx="14.3289" fill="white"/>
<path d="M27.6927 17.0605C27.6927 17.4599 27.9998 17.7836 28.3786 17.7836H35.9503C36.3291 17.7836 36.6362 18.1074 36.6362 18.5068V21.1034C36.6362 21.5028 36.3291 21.8266 35.9502 21.8265L28.3787 21.8258C27.9998 21.8257 27.6927 22.1495 27.6927 22.5489V25.5048C27.6927 25.9042 27.9998 26.2279 28.3786 26.2279H31.4891C31.6584 26.2279 31.8217 26.1619 31.9476 26.0426L32.2439 25.7619C32.3887 25.6248 32.4713 25.4293 32.4713 25.2241V22.6715C32.4713 22.2722 32.7784 21.9484 33.1573 21.9484H35.9503C36.3291 21.9484 36.6362 22.2722 36.6362 22.6715V25.383C36.6362 25.7823 36.3291 26.1061 35.9503 26.1061H33.2607C33.0916 26.1061 32.9284 26.172 32.8025 26.2911L32.3507 26.7186C32.2058 26.8558 32.123 27.0514 32.123 27.2567V29.531C32.123 29.7361 32.2057 29.9317 32.3504 30.0688L32.7957 30.4907C32.9217 30.61 33.085 30.676 33.2543 30.676H35.9503C36.3291 30.676 36.6362 30.9998 36.6362 31.3992V34.1115C36.6362 34.5109 36.3291 34.8346 35.9503 34.8346H33.1573C32.7784 34.8346 32.4713 34.5109 32.4713 34.1115V31.5635C32.4713 31.3583 32.3886 31.1627 32.2437 31.0255L31.7642 30.5716C31.6383 30.4524 31.4751 30.3865 31.3059 30.3865H28.3786C27.9998 30.3865 27.6927 30.7103 27.6927 31.1096V34.1653C27.6927 34.5647 27.3856 34.8885 27.0068 34.8885H24.0522C23.6733 34.8885 23.3662 34.5647 23.3662 34.1653V31.1096C23.3662 30.7103 23.0591 30.3865 22.6803 30.3865H19.7522C19.583 30.3865 19.4198 30.4524 19.2939 30.5716L18.8144 31.0255C18.6695 31.1626 18.5867 31.3583 18.5867 31.5635V34.1115C18.5867 34.5109 18.2796 34.8346 17.9008 34.8346H15.1078C14.729 34.8346 14.4219 34.5109 14.4219 34.1115V31.3992C14.4219 30.9998 14.729 30.676 15.1078 30.676H17.8037C17.9731 30.676 18.1364 30.61 18.2624 30.4906L18.7279 30.0494C18.8725 29.9122 18.9552 29.7168 18.9552 29.5116V27.2761C18.9552 27.0708 18.8724 26.8752 18.7275 26.738L18.2556 26.2912C18.1297 26.172 17.9665 26.1061 17.7973 26.1061H15.1078C14.729 26.1061 14.4219 25.7823 14.4219 25.383V22.6715C14.4219 22.2722 14.729 21.9484 15.1078 21.9484H17.9008C18.2796 21.9484 18.5867 22.2722 18.5867 22.6715V25.2241C18.5867 25.4293 18.6694 25.6248 18.8142 25.7619L19.1104 26.0426C19.2364 26.1619 19.3997 26.2279 19.569 26.2279H22.6803C23.0591 26.2279 23.3662 25.9042 23.3662 25.5048V22.5488C23.3662 22.1495 23.0591 21.8257 22.6803 21.8257H15.1078C14.729 21.8257 14.4219 21.5019 14.4219 21.1026V18.5068C14.4219 18.1074 14.729 17.7836 15.1078 17.7836H22.6803C23.0591 17.7836 23.3662 17.4599 23.3662 17.0605V15.8188C23.3662 15.4195 23.6733 15.0957 24.0522 15.0957H27.0068C27.3856 15.0957 27.6927 15.4195 27.6927 15.8188V17.0605Z" fill="#2B2B2B"/>
</svg>
