<svg width="13" height="13" viewBox="0 0 13 13" fill="none" xmlns="http://www.w3.org/2000/svg">
<path d="M12.9226 9.02593L12.9234 12.9459L9.00257 12.9455L9.00217 9.02593H12.9226Z" fill="white" fill-opacity="0.8"/>
<path d="M12.923 4.5246L12.9222 8.44456H9.00177V4.5246H12.923Z" fill="white" fill-opacity="0.8"/>
<path d="M12.9459 0L12.9455 3.94363L9.00097 3.94363L9.00177 3.94283H9.00017L9.00057 0L12.9459 0Z" fill="white" fill-opacity="0.8"/>
<path d="M3.91804 8.78038H4.16482V9.02553L4.16522 12.7003L0.244376 12.7007L0.244376 8.77998L3.91804 8.78038Z" fill="white" fill-opacity="0.8"/>
<path d="M8.41992 4.5246L8.42033 8.44416H4.74626H4.49908V8.19941L4.49868 4.5246L8.41992 4.5246Z" fill="white" fill-opacity="0.8"/>
<path d="M8.41952 0.023271L8.41912 3.94283H4.50189L4.50149 0.023271L8.41952 0.023271Z" fill="white" fill-opacity="0.8"/>
<path d="M3.91763 0.0228698V3.94283H0.000401274L0 0.0224685L3.91763 0.0228698Z" fill="white" fill-opacity="0.8"/>
</svg>
