<svg width="18" height="18" viewBox="0 0 18 18" fill="none" xmlns="http://www.w3.org/2000/svg">
<path d="M17.6017 12.2941L17.6028 17.6334L12.2623 17.6328L12.2617 12.2941L17.6017 12.2941Z" fill="#22262C"/>
<path d="M17.6022 6.16289L17.6011 11.5022L12.2612 11.5022V6.16289H17.6022Z" fill="#22262C"/>
<path d="M17.6334 0L17.6328 5.37155H12.2601L12.2612 5.37046H12.259L12.2595 0L17.6334 0Z" fill="#22262C"/>
<path d="M5.33669 11.9596H5.67283V12.2935L5.67338 17.2989L0.33286 17.2995L0.33286 11.9591L5.33669 11.9596Z" fill="#22262C"/>
<path d="M11.4686 6.16289L11.4692 11.5017H6.46481H6.12812V11.1683L6.12758 6.16289L11.4686 6.16289Z" fill="#22262C"/>
<path d="M11.4681 0.031697L11.4676 5.37046L6.13195 5.37046L6.1314 0.031697L11.4681 0.031697Z" fill="#22262C"/>
<path d="M5.33615 0.0311505V5.37046H0.000546568L0 0.030604L5.33615 0.0311505Z" fill="#22262C"/>
</svg>
